<svg width="64" height="64" viewBox="0 0 64 64" fill="none" xmlns="http://www.w3.org/2000/svg">
<rect x="4.70581" y="4.70581" width="54.5882" height="54.5882" rx="6" fill="url(#paint0_linear_118_3333)"/>
<path fill-rule="evenodd" clip-rule="evenodd" d="M10 0C4.47715 0 0 4.47715 0 10V54C0 59.5228 4.47715 64 10 64H54C59.5228 64 64 59.5228 64 54V10C64 4.47715 59.5228 0 54 0H10ZM10.8235 2.82353C6.40525 2.82353 2.82353 6.40526 2.82353 10.8235V53.1765C2.82353 57.5947 6.40526 61.1765 10.8235 61.1765H53.1765C57.5947 61.1765 61.1765 57.5947 61.1765 53.1765V10.8235C61.1765 6.40525 57.5947 2.82353 53.1765 2.82353H10.8235Z" fill="#2D2D2D"/>
<path d="M21.6 30.896C21.6 38.704 25.696 42.32 31.904 42.32C38.304 42.32 42.176 38.8 42.176 33.776C42.176 28.624 38.848 25.52 33.248 25.52C29.024 25.52 25.6 27.76 25.216 31.536H23.936L25.216 28.656C26.176 24.432 28.672 23.248 32.768 23.6L40.352 24.24V19.76L32.768 19.12C24.704 18.448 21.6 23.856 21.6 30.896ZM26.72 34.096C26.72 31.44 28.288 30 32.032 30C35.488 30 37.056 31.152 37.056 33.776C37.056 36.784 35.424 37.84 31.904 37.84C28.32 37.84 26.72 36.048 26.72 34.096Z" fill="white"/>
<defs>
<linearGradient id="paint0_linear_118_3333" x1="31.9999" y1="4.70581" x2="31.9999" y2="59.294" gradientUnits="userSpaceOnUse">
<stop stop-color="#4F4F4F"/>
<stop offset="0.5"/>
<stop offset="1"/>
</linearGradient>
</defs>
</svg>
