<svg width="64" height="64" viewBox="0 0 64 64" fill="none" xmlns="http://www.w3.org/2000/svg">
<rect x="4.70581" y="4.70581" width="54.5882" height="54.5882" rx="6" fill="url(#paint0_linear_118_3315)"/>
<path fill-rule="evenodd" clip-rule="evenodd" d="M10 0C4.47715 0 0 4.47715 0 10V54C0 59.5228 4.47715 64 10 64H54C59.5228 64 64 59.5228 64 54V10C64 4.47715 59.5228 0 54 0H10ZM10.8235 2.82353C6.40525 2.82353 2.82353 6.40526 2.82353 10.8235V53.1765C2.82353 57.5947 6.40526 61.1765 10.8235 61.1765H53.1765C57.5947 61.1765 61.1765 57.5947 61.1765 53.1765V10.8235C61.1765 6.40525 57.5947 2.82353 53.1765 2.82353H10.8235Z" fill="#2D2D2D"/>
<path d="M21.96 33.392C21.96 40.176 26.696 42.32 32.488 42.32C37.896 42.32 42.184 40.336 42.184 35.888C42.184 31.888 39.4 31.408 36.52 31.024V29.744C39.4 29.264 41.864 28.624 41.864 25.232C41.864 21.104 37.896 19.12 32.488 19.12C26.696 19.12 22.28 21.264 22.28 27.088H27.4C27.4 24.496 28.488 23.6 32.488 23.6C35.784 23.6 36.744 24.368 36.744 25.872C36.744 27.344 35.88 28.144 33.96 28.144H30.824V32.624H33.96C35.88 32.624 37.064 33.456 37.064 35.248C37.064 37.072 35.784 37.84 32.488 37.84C28.488 37.84 27.08 36.944 27.08 33.392H21.96Z" fill="white"/>
<defs>
<linearGradient id="paint0_linear_118_3315" x1="31.9999" y1="4.70581" x2="31.9999" y2="59.294" gradientUnits="userSpaceOnUse">
<stop stop-color="#4F4F4F"/>
<stop offset="0.5"/>
<stop offset="1"/>
</linearGradient>
</defs>
</svg>
