<svg width="68" height="68" viewBox="0 0 68 68" fill="none" xmlns="http://www.w3.org/2000/svg">
<rect x="5" y="5" width="58" height="58" rx="6" fill="url(#paint0_linear_7_44)"/>
<path fill-rule="evenodd" clip-rule="evenodd" d="M10 0C4.47715 0 0 4.47715 0 10V58C0 63.5228 4.47715 68 10 68H58C63.5228 68 68 63.5228 68 58V10C68 4.47715 63.5228 0 58 0H10ZM11 3C6.58172 3 3 6.58172 3 11V57C3 61.4183 6.58172 65 11 65H57C61.4183 65 65 61.4183 65 57V11C65 6.58172 61.4183 3 57 3H11Z" fill="#2D2D2D"/>
<defs>
<linearGradient id="paint0_linear_7_44" x1="34" y1="5" x2="34" y2="63" gradientUnits="userSpaceOnUse">
<stop stop-color="#4F4F4F"/>
<stop offset="0.5"/>
<stop offset="1"/>
</linearGradient>
</defs>
</svg>
