<svg width="383" height="181" viewBox="0 0 483 281" fill="none" xmlns="http://www.w3.org/2000/svg">
<rect x="155.706" y="14.7059" width="170.588" height="170.588" rx="6" fill="url(#paint0_linear_118_1081)"/>
<path fill-rule="evenodd" clip-rule="evenodd" d="M151 0C145.477 0 141 4.47716 141 10V190C141 195.523 145.477 200 151 200H331C336.523 200 341 195.523 341 190V10C341 4.47715 336.523 0 331 0H151ZM157.824 8.82353C153.405 8.82353 149.824 12.4052 149.824 16.8235V183.176C149.824 187.595 153.405 191.176 157.824 191.176H324.176C328.595 191.176 332.176 187.595 332.176 183.176V16.8235C332.176 12.4053 328.595 8.82353 324.176 8.82353H157.824Z" fill="#2D2D2D"/>
<rect x="286.018" y="45" width="200" height="200" rx="10" transform="rotate(11.25 286.018 45)" fill="#ECB000"/>
<rect x="297.573" y="62.2923" width="170.588" height="170.588" rx="6" transform="rotate(11.25 297.573 62.2923)" fill="url(#paint1_linear_118_1081)"/>
<rect y="84.0181" width="200" height="200" rx="10" transform="rotate(-11.25 0 84.0181)" fill="#03AF03"/>
<rect x="17.2922" y="95.5724" width="170.588" height="170.588" rx="6" transform="rotate(-11.25 17.2922 95.5724)" fill="url(#paint2_linear_118_1081)"/>
<defs>
<linearGradient id="paint0_linear_118_1081" x1="241" y1="14.7059" x2="241" y2="185.294" gradientUnits="userSpaceOnUse">
<stop stop-color="#4F4F4F"/>
<stop offset="0.5"/>
<stop offset="1"/>
</linearGradient>
<linearGradient id="paint1_linear_118_1081" x1="382.867" y1="62.2923" x2="382.867" y2="200.528" gradientUnits="userSpaceOnUse">
<stop stop-color="#FFE25E"/>
<stop offset="1" stop-color="#ECB000"/>
</linearGradient>
<linearGradient id="paint2_linear_118_1081" x1="102.586" y1="95.5724" x2="102.586" y2="230.866" gradientUnits="userSpaceOnUse">
<stop stop-color="#61DD63"/>
<stop offset="1" stop-color="#03AF03"/>
</linearGradient>
</defs>
</svg>
