<svg width="372" height="73" viewBox="0 0 372 73" fill="none" xmlns="http://www.w3.org/2000/svg">
<path d="M345.51 57.6464C346.152 54.3546 347.055 51.148 347.737 47.9044C348.591 43.8394 348.147 39.3532 348.147 35.1988C348.147 33.2613 346.736 32.2811 345.921 30.5919C344.812 28.2949 343.372 26.4545 341.585 24.6646C339.925 23.0013 338.302 21.2721 336.576 19.6763C334.407 17.6707 331.835 16.6096 329.634 14.8053C325.233 11.1984 320.935 9.05406 315.222 9.05406C308.964 9.05406 301.063 8.31798 295.304 5.885C291.799 4.40444 287.339 2.31962 283.587 1.71827C279.353 1.03968 274.561 1.65958 270.288 1.65958C261.259 1.65958 252.264 1.1314 243.222 1.1314C237.078 1.1314 231.672 2.3816 225.705 3.36148C223.423 3.73633 221.263 3.62481 218.968 3.80163C217.246 3.93429 215.98 4.83948 214.457 5.53288C213.173 6.1177 211.648 5.97882 210.298 6.44252C206.078 7.89167 202.388 10.3653 198.288 12.1057C196.79 12.7414 195.366 13.4015 193.894 14.0717C192.263 14.8145 191.412 16.2064 189.5 16.4192C185.046 16.9149 183.114 22.297 183.114 26.2198C183.114 28.8016 182.673 31.8248 183.524 34.2892C183.957 35.5402 185.558 35.7693 185.721 37.0768C185.965 39.0284 187.165 39.7499 188.094 41.4783C189.731 44.5236 191.537 46.2648 192.107 49.6944C192.396 51.4308 194.738 53.7805 195.769 55.1228C199.2 59.5907 205.761 60.7168 210.327 63.427C212.519 64.728 215.321 64.5611 217.738 65.2756C222.123 66.572 225.698 67.0924 230.333 67.1535C242.593 67.3151 254.91 67.6817 267.212 67.6817C271.437 67.6817 275.813 68.0253 279.954 67.2709C284.834 66.3822 290.117 68.2284 294.835 66.3906C297.406 65.3891 302.132 65.569 304.911 65.569C307.923 65.569 310.816 65.0408 313.758 65.0408C316.073 65.0408 318.137 64.5127 320.436 64.5127C322.471 64.5127 324.109 63.0202 326.178 62.9281C327.522 62.8683 329.029 63.1722 330.337 62.8108C332.095 62.3249 334.201 61.597 335.99 61.3729C337.212 61.22 338.346 61.5214 339.447 60.7861C341.366 59.5044 342.568 57.8082 344.046 56.1792C345.142 54.9717 347.008 54.284 347.62 52.5993C348.994 48.8117 348.674 44.855 348.674 40.8621C348.674 34.9261 349.427 28.3676 348.645 22.4932C347.856 16.5659 343.82 9.83323 337.865 7.9977C334.43 6.93884 331.519 5.07177 327.847 4.7993C323.136 4.4497 318.809 2.74663 314.168 2.07038C306.74 0.988133 298.872 0.659589 291.378 1.39549C283.994 2.12076 276.905 2.00043 269.761 4.53521C257.993 8.71011 246.023 14.039 233.468 15.3628C228.838 15.851 224.158 15.398 219.495 16.0377C215.621 16.5694 211.857 18.2839 207.896 18.5319C203.796 18.7886 199.758 18.9425 195.651 19.0894C193.365 19.1712 191.402 20.3606 189.178 20.7033C187.84 20.9096 184.655 22.3103 183.759 23.4322C182.887 24.5241 183.642 28.995 183.642 30.4159C183.642 35.2673 183.642 40.1187 183.642 44.9701C183.642 47.1951 183.357 49.6344 183.671 51.8364C184.188 55.4649 189.078 60.6187 191.551 63.1629C196.922 68.6896 202.194 69.3139 209.595 70.8508C217.065 72.4022 225.135 72.1891 232.677 71.3496C237.538 70.8085 241.019 68.2096 245.624 67.1535C248.842 66.4156 252.578 64.8074 255.613 63.4563C257.907 62.4347 260.795 62.5109 263.287 61.637C267.382 60.2014 272.079 60.962 276.322 60.8154C280.03 60.6873 283.862 59.9972 287.6 59.7297C290.778 59.5023 293.868 58.8575 297.061 58.7027C299.002 58.6086 300.045 57.6123 301.748 56.9421C302.93 56.477 304.209 56.6621 305.439 56.4726C309.116 55.906 312.539 55.5336 316.277 55.5336C320.989 55.5336 325.334 54.4773 330.103 54.4773C334.541 54.4773 343.783 52.7465 347.092 56.0618" stroke="#ECB000" stroke-width="2" stroke-linecap="round"/>
<path d="M0.8 22.8L5.64 51H18.92L22.56 24.4H24.16L27.8 51H41.08L45.92 22.8H39.72L35.24 49.4H33.64L30.16 22.8H16.56L13.08 49.4H11.48L7 22.8H0.8ZM62.7775 30.4C58.4575 30.4 55.9375 33.24 55.1375 36.84H53.5375L54.7375 33.24V21.6H48.3375V51H54.7375V43.52C54.7375 37.84 57.0175 36 60.4975 36C63.5775 36 64.6575 37.4 64.6575 41.08V51H71.0575V40.08C71.0575 33.84 67.9375 30.4 62.7775 30.4ZM73.8656 45.48C73.8656 47.56 74.9456 51.4 81.2256 51.4C86.8656 51.4 88.8256 48.56 89.5856 45.2H91.1856L90.1856 47.6V48C90.1856 49.92 91.2656 51 93.1856 51H97.6256V45.4H94.7056V39.72C94.7056 33.08 89.8256 30.4 84.2656 30.4C78.6256 30.4 74.2656 33.4 74.2656 38.52H80.2656C80.2656 36.68 81.7056 35.6 84.2656 35.6C87.0256 35.6 88.3056 36.6 88.3056 38.24L81.9456 39.12C75.9456 39.96 73.8656 42 73.8656 45.48ZM80.2656 44.28C80.2656 43.12 81.2256 42.84 83.1456 42.56L88.3056 41.84C88.3056 44.32 85.9856 45.8 82.4656 45.8C81.3856 45.8 80.2656 45.44 80.2656 44.28ZM108.006 45.8V36.4H114.646V30.8H108.006V25L101.606 27V30.8H96.8063V36.4H101.606V48C101.606 50.2 102.806 51.48 105.006 51.4L115.446 51V45.4L108.006 45.8ZM137.732 28.8C140.092 28.8 141.572 27.68 141.572 25.6C141.572 23.56 140.092 22.4 137.732 22.4C135.372 22.4 133.972 23.56 133.972 25.6C133.972 27.68 135.372 28.8 137.732 28.8ZM129.452 51H147.052V45.4H141.332V33.76C141.332 31.52 140.092 30.28 137.852 30.4L130.252 30.8V36.4L135.172 36.16V45.4H129.452V51ZM168.701 45.44C168.701 41.24 165.101 40.24 161.181 38.96C157.981 37.92 155.981 37.32 155.981 36.36C155.981 35.56 156.821 35.2 158.341 35.2C160.541 35.2 161.621 36.28 161.621 37.72H168.021C168.021 33.8 165.221 30.4 158.381 30.4C152.821 30.4 149.581 32.48 149.581 36.08C149.581 40.6 154.181 41.6 157.941 42.84C161.181 43.92 162.301 44.2 162.301 45.24C162.301 46.2 161.221 46.6 159.501 46.6C156.141 46.6 155.061 45.24 155.061 43.68H148.661C148.661 48.4 151.861 51.4 159.301 51.4C166.261 51.4 168.701 48.84 168.701 45.44ZM181.503 22.8L186.343 51H199.623L203.263 24.4H204.863L208.503 51H221.783L226.623 22.8H220.423L215.943 49.4H214.343L210.863 22.8H197.263L193.783 49.4H192.183L187.703 22.8H181.503ZM227.03 40.88C227.03 47.96 232.07 51.4 238.43 51.4C244.75 51.4 249.79 47.96 249.79 40.88C249.79 33.84 244.75 30.4 238.43 30.4C232.07 30.4 227.03 33.84 227.03 40.88ZM233.43 40.88C233.43 37.52 235.39 36 238.43 36C241.43 36 243.39 37.52 243.39 40.88C243.39 44.28 241.43 45.8 238.43 45.8C235.39 45.8 233.43 44.28 233.43 40.88ZM252.595 51H258.995V36.16L269.275 36.4V30.8L256.035 30.48C253.835 30.44 252.595 31.64 252.595 33.84V51ZM294.417 51V21.6H288.017V32.04L289.217 35.64H287.617C286.577 32.96 284.657 30.4 279.657 30.4C273.817 30.4 270.897 35.16 270.897 40.88C270.897 46.6 273.817 51.4 279.657 51.4C284.657 51.4 286.577 48.84 287.617 46.16H289.217L288.017 49.76V51H294.417ZM288.017 40.88C288.017 44.28 286.097 45.8 282.657 45.8C279.217 45.8 277.297 44.28 277.297 40.88C277.297 37.48 279.217 36 282.657 36C286.097 36 288.017 37.48 288.017 40.88ZM297.645 51H315.245V45.4H309.645V24.68C309.645 22.44 308.405 21.24 306.165 21.32L298.445 21.6V27.2L303.245 26.96V45.4H297.645V51ZM316.444 40.64C316.444 46.36 320.004 51.4 327.764 51.4C334.764 51.4 338.084 46.8 338.484 43.88H332.084C331.684 45.4 330.004 46.2 327.764 46.2C324.124 46.2 322.444 44.56 322.444 42.24H337.764V40.24C337.764 34.12 333.364 30.4 327.084 30.4C320.804 30.4 316.444 34.24 316.444 40.64ZM322.444 38.64C322.444 37.12 323.524 35.6 327.084 35.6C330.644 35.6 331.764 37.12 331.764 38.64H322.444ZM353.289 29.4H358.089C358.089 26.72 359.369 25.2 362.689 25.2C364.769 25.2 366.289 25.96 366.289 27.8C366.289 31.32 361.129 32.6 355.449 32.72V40.64H369.209V36.64H360.089L357.049 37.72V36.36C363.409 35.68 371.089 34.04 371.089 27.64C371.089 24.64 369.009 21.2 362.769 21.2C356.009 21.2 353.289 24.92 353.289 29.4ZM362.289 51.4C364.929 51.4 366.729 49.48 366.729 46.96C366.729 44.52 364.929 42.6 362.289 42.6C359.569 42.6 357.929 44.52 357.929 46.96C357.929 49.48 359.569 51.4 362.289 51.4Z" fill="white"/>
</svg>
