<svg width="232" height="152" viewBox="0 0 232 152" fill="none" xmlns="http://www.w3.org/2000/svg">
<g filter="url(#filter0_bi_118_1346)">
<rect width="232" height="152" rx="10" fill="white" fill-opacity="0.1"/>
</g>
<path d="M82.078 105H83.352V97.762L86.586 105H87.482L90.702 97.776V105H91.976V95.312H90.618L87.034 103.32L83.45 95.312H82.078V105ZM94.1366 105H95.4106V95.242H94.1366V105ZM103.98 95.228V102.984L98.8559 95.228H97.5819V105H98.8559V97.23L103.98 105H105.254V95.228H103.98ZM106.824 96.278H109.498V105H110.772V96.278H113.432V95.242H106.824V96.278ZM120.006 99.876V96.292H121.882C123.338 96.292 123.954 96.964 123.954 98.098C123.954 99.19 123.338 99.876 121.882 99.876H120.006ZM125.256 98.098C125.256 96.502 124.178 95.242 121.882 95.242H118.732V105H120.006V100.926H121.882C124.304 100.926 125.256 99.582 125.256 98.098ZM132.062 98.112C132.062 99.204 131.432 99.988 129.99 99.988H128.114V96.292H129.99C131.446 96.292 132.062 97.006 132.062 98.112ZM126.84 95.242V105H128.114V101.01H129.654L131.978 105H133.504L131.054 100.912C132.692 100.548 133.378 99.358 133.378 98.112C133.378 96.516 132.286 95.242 129.99 95.242H126.84ZM135.357 105H136.631V95.242H135.357V105ZM138.327 100.114C138.327 103.04 140.469 105.084 143.199 105.084C145.313 105.084 146.993 104.034 147.721 102.158H146.195C145.663 103.32 144.627 103.978 143.199 103.978C141.155 103.978 139.629 102.494 139.629 100.114C139.629 97.72 141.155 96.236 143.199 96.236C144.627 96.236 145.663 96.894 146.195 98.07H147.721C146.993 96.18 145.313 95.116 143.199 95.116C140.469 95.116 138.327 97.188 138.327 100.114ZM154.867 95.228H149.617V105H154.867V103.95H150.891V100.59H154.447V99.54H150.891V96.278H154.867V95.228Z" fill="white"/>
<path d="M32.2 45.4C23.64 45.4 18.6 51.28 18.6 59.88C18.6 68.52 23.64 74.4 32.2 74.4C40.72 74.4 45.76 68.52 45.76 59.88C45.76 51.28 40.72 45.4 32.2 45.4ZM32.2 51C33.76 51 35.12 51.36 36.2 52.08L25.44 63.56C25.16 62.48 25 61.28 25 59.88C25 54.08 27.68 51 32.2 51ZM32.2 68.8C30.64 68.8 29.28 68.44 28.16 67.68L38.92 56.2C39.2 57.28 39.36 58.52 39.36 59.88C39.36 65.72 36.72 68.8 32.2 68.8ZM54.5116 74.4C57.1516 74.4 58.9516 72.48 58.9516 69.96C58.9516 67.52 57.1516 65.6 54.5116 65.6C51.7916 65.6 50.1516 67.52 50.1516 69.96C50.1516 72.48 51.7916 74.4 54.5116 74.4ZM76.9656 45.4C68.4056 45.4 63.3656 51.28 63.3656 59.88C63.3656 68.52 68.4056 74.4 76.9656 74.4C85.4856 74.4 90.5256 68.52 90.5256 59.88C90.5256 51.28 85.4856 45.4 76.9656 45.4ZM76.9656 51C78.5256 51 79.8856 51.36 80.9656 52.08L70.2056 63.56C69.9256 62.48 69.7656 61.28 69.7656 59.88C69.7656 54.08 72.4456 51 76.9656 51ZM76.9656 68.8C75.4056 68.8 74.0456 68.44 72.9256 67.68L83.6856 56.2C83.9656 57.28 84.1256 58.52 84.1256 59.88C84.1256 65.72 81.4856 68.8 76.9656 68.8ZM118.317 63.64H115.237V57.4H108.837V63.64H99.7172L95.7172 64.84V63.24C105.717 61.16 111.397 55.12 111.837 45.8H105.437C104.957 52.48 100.837 56.56 94.1172 57.6V69.24H108.837V74H115.237V69.24H118.317V63.64ZM133.541 74H153.661V68.4H139.941V62.68H151.661V57.08H139.941V51.4H153.661V45.8H133.541V74ZM181.282 45.8H156.442V51.4H165.682V74H172.082V51.4H181.282V45.8ZM204.648 45.8V57.48H190.488V45.8H184.088V74H190.488V63.08H204.648V74H211.048V45.8H204.648Z" fill="white"/>
<defs>
<filter id="filter0_bi_118_1346" x="-25" y="-25" width="282" height="202" filterUnits="userSpaceOnUse" color-interpolation-filters="sRGB">
<feFlood flood-opacity="0" result="BackgroundImageFix"/>
<feGaussianBlur in="BackgroundImage" stdDeviation="12.5"/>
<feComposite in2="SourceAlpha" operator="in" result="effect1_backgroundBlur_118_1346"/>
<feBlend mode="normal" in="SourceGraphic" in2="effect1_backgroundBlur_118_1346" result="shape"/>
<feColorMatrix in="SourceAlpha" type="matrix" values="0 0 0 0 0 0 0 0 0 0 0 0 0 0 0 0 0 0 127 0" result="hardAlpha"/>
<feMorphology radius="2" operator="erode" in="SourceAlpha" result="effect2_innerShadow_118_1346"/>
<feOffset dy="5"/>
<feGaussianBlur stdDeviation="5"/>
<feComposite in2="hardAlpha" operator="arithmetic" k2="-1" k3="1"/>
<feColorMatrix type="matrix" values="0 0 0 0 1 0 0 0 0 1 0 0 0 0 1 0 0 0 0.25 0"/>
<feBlend mode="normal" in2="shape" result="effect2_innerShadow_118_1346"/>
</filter>
</defs>
</svg>
