<svg width="164" height="144" viewBox="0 0 164 144" fill="none" xmlns="http://www.w3.org/2000/svg">
<g filter="url(#filter0_bi_118_1341)">
<rect width="164" height="144" rx="10" fill="white" fill-opacity="0.1"/>
</g>
<path d="M42.07 98.13V99.166H39.284V108H38.01V99.166H35.224V98.13H42.07ZM47.8585 98.004C48.7731 98.004 49.5945 98.2187 50.3225 98.648C51.0598 99.0773 51.6385 99.6793 52.0585 100.454C52.4785 101.219 52.6885 102.087 52.6885 103.058C52.6885 104.029 52.4785 104.901 52.0585 105.676C51.6385 106.441 51.0598 107.039 50.3225 107.468C49.5945 107.897 48.7731 108.112 47.8585 108.112C46.9438 108.112 46.1131 107.897 45.3665 107.468C44.6291 107.039 44.0505 106.441 43.6305 105.676C43.2105 104.901 43.0005 104.029 43.0005 103.058C43.0005 102.087 43.2105 101.219 43.6305 100.454C44.0505 99.6793 44.6291 99.0773 45.3665 98.648C46.1131 98.2187 46.9438 98.004 47.8585 98.004ZM47.8585 99.194C47.1771 99.194 46.5658 99.3527 46.0245 99.67C45.4925 99.978 45.0725 100.426 44.7645 101.014C44.4658 101.593 44.3165 102.274 44.3165 103.058C44.3165 103.833 44.4658 104.514 44.7645 105.102C45.0725 105.69 45.4925 106.143 46.0245 106.46C46.5658 106.768 47.1771 106.922 47.8585 106.922C48.5305 106.922 49.1325 106.763 49.6645 106.446C50.2058 106.129 50.6258 105.681 50.9245 105.102C51.2325 104.514 51.3865 103.833 51.3865 103.058C51.3865 102.274 51.2325 101.593 50.9245 101.014C50.6258 100.426 50.2058 99.978 49.6645 99.67C49.1325 99.3527 48.5305 99.194 47.8585 99.194ZM60.4587 98.13V99.166H57.6727V108H56.3987V99.166H53.6127V98.13H60.4587ZM67.5071 105.718H63.1671L62.3411 108H60.9691L64.6231 98.312H66.0651L69.7051 108H68.3331L67.5071 105.718ZM67.1431 104.724L65.3371 99.74L63.5311 104.724H67.1431ZM72.2687 107.006H75.7687V108H70.9947V98.13H72.2687V107.006ZM90.408 98.298V108H89.134V100.258L86.04 108H84.906L81.798 100.286V108H80.524V98.298H82.05L85.494 106.446L88.882 98.298H90.408ZM93.7198 98.13V108H92.4458V98.13H93.7198ZM103.44 108H102.166L97.0421 100.202V108H95.7681V98.13H97.0421L102.166 105.942V98.13H103.44V108ZM111.537 98.13V99.166H108.751V108H107.477V99.166H104.691V98.13H111.537ZM114.077 99.166V102.54H117.829V103.52H114.077V106.964H118.249V108H112.803V98.13H118.249V99.166H114.077ZM128.201 103.058C128.201 104.057 128.001 104.929 127.599 105.676C127.198 106.413 126.605 106.987 125.821 107.398C125.047 107.799 124.113 108 123.021 108H119.885V98.13H123.021C124.113 98.13 125.047 98.3307 125.821 98.732C126.605 99.124 127.198 99.6933 127.599 100.44C128.001 101.177 128.201 102.05 128.201 103.058ZM122.923 106.852C124.211 106.852 125.196 106.521 125.877 105.858C126.559 105.195 126.899 104.262 126.899 103.058C126.899 101.854 126.559 100.921 125.877 100.258C125.205 99.586 124.221 99.25 122.923 99.25H121.159V106.852H122.923Z" fill="white"/>
<path d="M39.28 33.96C27.296 33.96 20.24 42.192 20.24 54.232C20.24 66.328 27.296 74.56 39.28 74.56C51.208 74.56 58.264 66.328 58.264 54.232C58.264 42.192 51.208 33.96 39.28 33.96ZM39.28 41.8C41.464 41.8 43.368 42.304 44.88 43.312L29.816 59.384C29.424 57.872 29.2 56.192 29.2 54.232C29.2 46.112 32.952 41.8 39.28 41.8ZM39.28 66.72C37.096 66.72 35.192 66.216 33.624 65.152L48.688 49.08C49.08 50.592 49.304 52.328 49.304 54.232C49.304 62.408 45.608 66.72 39.28 66.72ZM81.7722 33.96C69.7882 33.96 62.7322 42.192 62.7322 54.232C62.7322 66.328 69.7882 74.56 81.7722 74.56C93.7002 74.56 100.756 66.328 100.756 54.232C100.756 42.192 93.7002 33.96 81.7722 33.96ZM81.7722 41.8C83.9562 41.8 85.8602 42.304 87.3722 43.312L72.3082 59.384C71.9162 57.872 71.6922 56.192 71.6922 54.232C71.6922 46.112 75.4442 41.8 81.7722 41.8ZM81.7722 66.72C79.5882 66.72 77.6842 66.216 76.1162 65.152L91.1802 49.08C91.5722 50.592 91.7962 52.328 91.7962 54.232C91.7962 62.408 88.1002 66.72 81.7722 66.72ZM124.264 33.96C112.28 33.96 105.224 42.192 105.224 54.232C105.224 66.328 112.28 74.56 124.264 74.56C136.192 74.56 143.248 66.328 143.248 54.232C143.248 42.192 136.192 33.96 124.264 33.96ZM124.264 41.8C126.448 41.8 128.352 42.304 129.864 43.312L114.8 59.384C114.408 57.872 114.184 56.192 114.184 54.232C114.184 46.112 117.936 41.8 124.264 41.8ZM124.264 66.72C122.08 66.72 120.176 66.216 118.608 65.152L133.672 49.08C134.064 50.592 134.288 52.328 134.288 54.232C134.288 62.408 130.592 66.72 124.264 66.72Z" fill="white"/>
<defs>
<filter id="filter0_bi_118_1341" x="-25" y="-25" width="214" height="194" filterUnits="userSpaceOnUse" color-interpolation-filters="sRGB">
<feFlood flood-opacity="0" result="BackgroundImageFix"/>
<feGaussianBlur in="BackgroundImage" stdDeviation="12.5"/>
<feComposite in2="SourceAlpha" operator="in" result="effect1_backgroundBlur_118_1341"/>
<feBlend mode="normal" in="SourceGraphic" in2="effect1_backgroundBlur_118_1341" result="shape"/>
<feColorMatrix in="SourceAlpha" type="matrix" values="0 0 0 0 0 0 0 0 0 0 0 0 0 0 0 0 0 0 127 0" result="hardAlpha"/>
<feMorphology radius="2" operator="erode" in="SourceAlpha" result="effect2_innerShadow_118_1341"/>
<feOffset dy="5"/>
<feGaussianBlur stdDeviation="5"/>
<feComposite in2="hardAlpha" operator="arithmetic" k2="-1" k3="1"/>
<feColorMatrix type="matrix" values="0 0 0 0 1 0 0 0 0 1 0 0 0 0 1 0 0 0 0.25 0"/>
<feBlend mode="normal" in2="shape" result="effect2_innerShadow_118_1341"/>
</filter>
</defs>
</svg>
